<?xml version="1.0" encoding="utf-8"?>
<!-- Generator: Adobe Illustrator 24.0.1, SVG Export Plug-In . SVG Version: 6.00 Build 0)  -->
<svg version="1.1" id="Capa_1" xmlns="http://www.w3.org/2000/svg" xmlns:xlink="http://www.w3.org/1999/xlink" x="0px" y="0px"
	 viewBox="0 0 393 7.5" style="enable-background:new 0 0 393 7.5;" xml:space="preserve">
<style type="text/css">
	.st0{fill:#282B3E;}
	.st1{fill:#888B95;}
</style>
<title>life_xp</title>
<g>
	<rect x="386.5" y="3.3" class="st0" width="3" height="1"/>
	<path class="st1" d="M380.4,4.3h-6.1v-1h6.1V4.3z M368.2,4.3h-6.1v-1h6.1V4.3z M356,4.3h-6.1v-1h6.1V4.3z M343.8,4.3h-6.1v-1h6.1
		V4.3z M331.6,4.3h-6.1v-1h6.1V4.3z M319.5,4.3h-6.1v-1h6.1V4.3z M307.3,4.3h-6.1v-1h6.1V4.3z M295.1,4.3H289v-1h6.1V4.3z M283,4.3
		h-6.1v-1h6.1V4.3z M270.8,4.3h-6.1v-1h6.1V4.3z M258.6,4.3h-6.1v-1h6.1V4.3z M246.5,4.3h-6.1v-1h6.1V4.3z M234.3,4.3h-6.1v-1h6.1
		V4.3z M222.1,4.3H216v-1h6.1L222.1,4.3z M210,4.3h-6.1v-1h6.1V4.3z M197.8,4.3h-6.1v-1h6.1V4.3z M185.7,4.3h-6.1v-1h6.1V4.3z
		 M173.5,4.3h-6.1v-1h6.1V4.3z M161.3,4.3h-6.1v-1h6.1V4.3z M149.1,4.3H143v-1h6.1L149.1,4.3z M137,4.3h-6.1v-1h6.1V4.3z M124.8,4.3
		h-6.1v-1h6.1V4.3z M112.6,4.3h-6.1v-1h6.1L112.6,4.3z M100.4,4.3h-6.1v-1h6.1L100.4,4.3z M88.3,4.3h-6.1v-1h6.1L88.3,4.3z M76,4.3
		h-6v-1h6V4.3z M63.8,4.3h-6.1v-1h6.1L63.8,4.3z M51.7,4.3h-6v-1h6.1L51.7,4.3z M39.5,4.3h-6.1v-1h6.1L39.5,4.3z M27.3,4.3h-6.1v-1
		h6.1L27.3,4.3z M15.1,4.3h-6v-1h6.1L15.1,4.3z"/>
	<rect y="3.3" class="st1" width="3" height="1"/>
	<path class="st1" d="M389.3,0c2.1,0,3.8,1.7,3.8,3.8c0,2.1-1.7,3.8-3.8,3.8c-2.1,0-3.8-1.7-3.8-3.8C385.5,1.7,387.2,0,389.3,0
		C389.3,0,389.3,0,389.3,0z"/>
</g>
</svg>
